<svg xmlns="http://www.w3.org/2000/svg" width="94.95" height="94.972" viewBox="0 0 94.95 94.972">
  <path id="adobexd" d="M74.516.3H20.434A20.7,20.7,0,0,0,0,21.263V74.309A20.7,20.7,0,0,0,20.434,95.272H74.516A20.7,20.7,0,0,0,94.95,74.309V21.263A20.7,20.7,0,0,0,74.516.3ZM50.359,67.231H41.311c-.633,0-1.084-.024-1.337-.459q-1.276-2.551-2.548-5.065-1.313-2.587-2.706-5.13-1.447-2.632-2.837-5.3H31.82q-1.286,2.632-2.643,5.228-1.365,2.612-2.706,5.2t-2.734,5.13c-.174.394-.471.434-.9.434H14.116c-.17,0-.265.069-.285-.106a.688.688,0,0,1,.095-.459L26.218,45.984,14.243,25.212c-.131-.175-.15-.317-.063-.434a.449.449,0,0,1,.384-.162h8.981a1.392,1.392,0,0,1,.574.1,1.167,1.167,0,0,1,.38.361q1.145,2.618,2.548,5.228t2.833,5.163q1.43,2.551,2.643,5.163h.063q1.264-2.679,2.579-5.228t2.674-5.13q1.371-2.587,2.643-5.13a1,1,0,0,1,.253-.43.925.925,0,0,1,.51-.1h8.344a.367.367,0,0,1,.443.272.383.383,0,0,1-.123.382l0,.016L38.063,45.343l12.676,21.3a.684.684,0,0,1,.063.491c-.04.146-.186.049-.443.093Zm30.388-1.7a31.129,31.129,0,0,1-6.433,1.96,33.307,33.307,0,0,1-6.12.589,19.381,19.381,0,0,1-8.5-1.826,13.663,13.663,0,0,1-5.958-5.524,18.015,18.015,0,0,1-2.168-9.246,17.4,17.4,0,0,1,2.168-8.56,16.089,16.089,0,0,1,6.31-6.271,19.9,19.9,0,0,1,10.828-2.322q.51.03,1.211.1V21.551c0-.3.127-.459.384-.459H80.49a.342.342,0,0,1,.384.3.4.4,0,0,1,0,.1V60.112c0,.743.032,1.546.095,2.419s.119,1.652.158,2.35a.664.664,0,0,1-.38.645ZM71.027,41.938a6.59,6.59,0,0,1,1.052.195V59.97a6.319,6.319,0,0,1-1.4.26q-.827.068-1.658.065a10.265,10.265,0,0,1-3.284-.524,6.748,6.748,0,0,1-2.674-1.632,8.036,8.036,0,0,1-1.784-2.874,11.755,11.755,0,0,1-.669-4.184,9.178,9.178,0,0,1,1.306-5.163,8.8,8.8,0,0,1,3.343-3.007,9.633,9.633,0,0,1,4.459-1.047c.439.008.874.028,1.31.073Z" transform="translate(0 -0.3)"/>
</svg>
