<svg id="Composant_2_1" data-name="Composant 2 – 1" xmlns="http://www.w3.org/2000/svg" xmlns:xlink="http://www.w3.org/1999/xlink" width="960" height="591" viewBox="0 0 960 591">
  <defs>
    <clipPath id="clip-path">
      <rect id="Background" width="960" height="591" fill="#49b265"/>
    </clipPath>
  </defs>
  <g id="Groupe_de_masques_6" data-name="Groupe de masques 6" clip-path="url(#clip-path)">
    <g id="Patterns" transform="translate(-144.851 -192.073)">
      <g id="Clarence" transform="translate(0 0)">
        <g id="Shape" transform="translate(0)">
          <path id="Tracé_49" data-name="Tracé 49" d="M17.641,351.238C46.174,413.705,68.382,478.352,90.934,542.4c24.046,68.265,24.113,140.089,33.168,209.84,5.424,42.034,16.057,82.54,49.963,115.954,23.741,23.372,52.212,39.114,87.545,48.2,49.224,12.655,102.773,12.914,151.027,27.689,11.169,3.419,22.467,8.028,29.881,15.973,6.151,6.608,9.083,14.909,13.159,22.243,3.631,6.529,9.754,9.129,17.517,9.819,23.679,2.1,54.1-9.592,78.677-13.155,5.192-.754,11.839-1.555,16.406-3.8,3.259-1.606,3.163-3.887,2.988-5.872-1.359-15.413-.507-31.585-5.215-46.772-5.4-17.408-18.859-29.448-37.272-37.018-31.572-12.956-72.294-13.919-108.163-19.055-35.4-5.09-71.037-10.643-104.972-20.614-28.725-8.426-55.646-20.36-78.276-37.3-28.347-21.234-43.66-50.566-53.069-80.181-23.115-72.842-21.2-150.907-43.265-224.823-10.977-36.777-24.886-73.254-38.6-109.4-11.744-30.952-24.277-62.171-41.207-91.24-4.764-8.186-10.577-19.2-21.181-23.6-5.147-2.133-10.34-1.745-15.307-.976-7.374,1.143-14.783,3.85-19.208,8.954-14.658,16.88,3.529,47.341,12.116,63.939" transform="translate(0 -60.104)" fill="#49b265"/>
          <path id="Tracé_50" data-name="Tracé 50" d="M76.346,290.508c17.5,33.205,31.223,67.637,44.153,102.148,8.494,22.677,16.655,45.46,24.862,68.216,12.524,34.71,20.064,70.271,26.2,106.04,6.66,38.819,12.033,78.175,21.571,116.416,10.825,43.4,28.22,84.8,71.509,113.921,34.428,23.14,76.628,35.871,119.3,44.761,26.527,5.521,53.426,9.617,80.342,13.5,25.1,3.628,51.36,5.516,75.065,13.708,31.883,11.019,46.986,32.641,62.507,56.22,5.751,8.737,15.239,14.763,25.578,19.234,24.783,10.718,53.838,15.508,81.838,19.294,3.657.5,7.45.981,11.373,1.347a184.85,184.85,0,0,0,23.53.666c.564,0,1.129-.032,1.693-.065,5.508-.338,12.044-.615,16.9-3.184,2.867-1.518,2.777-4,2.258-6.447-10.12-46.131-24.06-94.41-73.439-121.557-29.349-16.142-66.1-18.317-100.722-22.779-39.722-5.091-79.58-10.334-118.721-17.295-48.03-8.539-97.528-19.275-140.535-39.773-45.033-21.469-69.167-53.846-85.6-93.072-21.052-50.246-30.037-103.893-42.386-156.295-12.3-52.217-31.121-102.8-50.457-153.411-11.627-30.429-23.744-61.385-40.592-89.7-4.91-8.252-10.594-16.448-18.93-22.9-6.005-4.67-13.467-9.3-21.622-10.88-5.2-.995-12.868.366-16.187,4.128-6.248,7.072-.632,17.98,2.7,25.13,5.181,11.107,11.655,21.867,17.835,32.622" transform="translate(-2.38 -49.413)" fill="#49b265"/>
          <path id="Tracé_51" data-name="Tracé 51" d="M117.981,245.671c17.92,29.665,31.2,60.944,43.466,92.371,8.461,21.738,16.516,43.665,24.672,65.495,13.2,35.349,22.134,71.567,30.939,107.8,9.623,39.562,19.781,79.323,34.667,117.582,8.76,22.505,19.409,44.969,34.639,65.268,15.557,20.724,38.864,35.654,64.619,47.212,52.457,23.532,112.62,34.9,170.786,44.4,31.164,5.088,62.52,9.324,93.888,13.463,29.252,3.862,59.52,6.013,86.459,16.9,42.728,17.224,67.309,50.695,90.035,83.412,7.7,11.1,17.813,20.632,29.151,29.11,24.875,18.6,51.2,33.36,83.233,42.865a113.988,113.988,0,0,0,12.274,3.122c7.276,1.286,14.942,2.155,22.455.925.44-.069.869-.157,1.28-.245,5.466-1.188,7.9-3.57,9.166-6.993.818-2.2-.175-5.175-1.591-8.247-25.947-56.314-51.442-120.042-112.129-156.617-31.328-18.879-68.973-21.5-106.878-25.979-47.065-5.55-94.243-11.132-140.9-18.176-59.711-9.01-121.369-19.388-176.9-40.51-26.511-10.092-51.589-23.971-69.086-43.517-14.976-16.738-26.336-36-35.964-55C281.474,571.4,266.47,519.337,250.507,467.856c-15.275-49.293-34.346-97.4-53.947-145.567-10.988-27-22.139-54.524-37.679-79.55A104.188,104.188,0,0,0,141.2,220.927c-8.743-8.084-18.665-17.3-30.324-21.6-4.71-1.734-12.144-4.348-16.922-2.012-11,5.36,19.33,41.126,24.04,48.405" transform="translate(-4.111 -42.503)" fill="#49b265"/>
          <path id="Tracé_52" data-name="Tracé 52" d="M162.8,227.082c18.789,26.666,32.324,55.294,44.645,84.242,9.031,21.19,17.57,42.686,26.093,64,14.28,35.706,24.575,72.624,36.173,108.988,13.089,41.043,28.525,81.886,48.54,120.9,11.2,21.81,23.88,43.764,40.9,63.145,19.58,22.292,47.659,37.326,78.075,48.023,64.343,22.62,135.335,32.929,204,42.32,36.055,4.929,72.245,9.193,108.418,13.423,27.927,3.268,57.937,4.476,84.222,13.456,51.785,17.7,83.928,59.247,111.257,97.12,8.613,11.947,18.016,23.5,27.967,34.762,18.817,21.292,38.741,48.5,68.412,60.409a44.1,44.1,0,0,0,8.72,2.777c6.09,1.088,10.724-.708,13.044-3.62a7.866,7.866,0,0,0,.564-.731c2.291-3.68,1.405-9.521.48-13.3a39.994,39.994,0,0,0-4.126-9.72c-35.422-62.025-79.876-129.627-149.005-168.61-30.935-17.441-65.472-20.542-102.689-24.509-47.117-5.022-94.466-9.132-141.414-14.567-60.262-6.975-122.771-14.858-179.252-34.6-55.025-19.237-88-54.378-109.66-98.564-23.265-47.472-35.355-98.3-51.187-147.906-15.222-47.583-37.1-92.9-58.874-138.588-12.09-25.365-24.6-51.189-41.146-74.36a127.712,127.712,0,0,0-19.3-21.116c-13.693-12.15-28.695-24.009-45.915-32.688-7.281-3.671-15.363-7.772-23.626-9.586-9.6-2.106,2.009,11.151,3.426,12.886,7.083,8.679,14.6,17.1,21.245,26.018" transform="translate(-6.032 -40.678)" fill="#49b265"/>
          <path id="Tracé_53" data-name="Tracé 53" d="M228.868,233.959c22.914,25.074,41.208,52.338,56.529,80.818,10.989,20.438,20.178,41.917,29.965,62.578,16.455,34.7,24.567,72.456,34.134,109.164,10.78,41.367,22.446,83.33,40.881,122.619,10.25,21.826,22,43.106,41.366,60.865,21.086,19.332,47.712,32.5,77.147,41.542,60.585,18.573,126.681,24.589,190.577,30.326,33.491,3.021,67.044,5.594,100.529,8.662,28.205,2.586,58.994,3.554,85.862,11.568,53.167,15.834,95.2,54.545,130.951,88.786,12.066,11.568,24.471,22.937,36.842,34.241,29.4,26.837,56.754,63.049,100.884,74.691a58.175,58.175,0,0,0,14.17,2.282c8.281.064,18.412-2.81,22.937-9.042a11.313,11.313,0,0,0,.835-1.282c3.6-6.691.09-13.932-2.77-20.359a46.88,46.88,0,0,0-7.841-11.29c-32.8-36.716-73.446-70.291-115.573-100.46-44.406-31.839-92.282-61.865-143.97-84.459-17.623-7.695-36.26-14.969-55.846-19.078-18.237-3.822-37.908-4.442-56.63-5.455-42.832-2.314-85.885-2.425-128.689-3.7C627.221,705.4,570.591,703.5,519.19,688.465c-25.774-7.538-49.545-19.735-67.743-36.633-16.827-15.63-24.578-36.365-29.153-56.419-10.7-46.8-6.166-95.356-9.37-142.923-1.6-23.723-4.789-47.567-12.483-70.527-7.074-21.114-19.055-40.844-31.1-60.185-15.231-24.468-32.272-48.807-53.071-69.93a143.422,143.422,0,0,0-23.579-19.068c-19.659-12.882-40.959-25.3-64.714-32.543a139.828,139.828,0,0,0-26.9-5.576c-12.754-1.194-1.241,10.883,1.591,13.789,8.462,8.685,17.8,16.773,26.208,25.5" transform="translate(-8.764 -42.112)" fill="#49b265"/>
          <path id="Tracé_54" data-name="Tracé 54" d="M306.474,213.182c30.366,23.032,57.431,48.474,78.825,77.174C399.348,309.2,412.945,329.933,420.111,351c12.119,35.626,9.027,74.953,7.9,112.365-1.247,41.252-3.052,83.184,5.247,123.312,4.48,21.658,14.342,41.641,34.642,57.038,19.059,14.468,42.129,24.179,66.988,29.986,52.325,12.215,108.655,11.164,162.542,10.669,28.949-.268,57.9-.8,86.854-.379,26.055.375,53.837.268,79.271,5.413,70.831,14.343,136.685,51.9,195.78,85.285,20.842,11.775,41.915,23.481,62.571,35.436,33.288,19.261,64.884,40.646,97.986,60.263,28.611,16.962,59.665,32.2,94.5,38.064,7.521,1.268,15.651,2.36,23.031,1.7,10.353-.925,25.705-4.03,27.421-14.75a8.385,8.385,0,0,0,.107-1.851c-.564-10.581-12.932-20.149-21.2-27.145a197.385,197.385,0,0,0-16.582-12.4c-59.462-40.465-127.11-74.634-194.572-106.415-68.957-32.433-140.267-63.058-213.959-86.645-41.04-13.135-80.371-22.088-124.825-21.746-37.373.3-74.633,4.076-111.713,6.94-45.966,3.553-94.984,7.444-140.036-3.512-23.934-5.82-46.231-17.04-62.988-32.281-16.926-15.361-21.761-36.51-21.558-56.118.48-46.6,20.5-93.46,30.823-140.052,4.892-22.083,8.531-44.708,6.505-67.19-1.969-21.838-11.555-40.553-23.477-59.685-16.21-26.039-35.393-51.426-58.52-73.3a155.372,155.372,0,0,0-26.145-19.8c-25.389-15.416-54.6-29.079-87.091-31.272-10.263-.694-22.286-.319-31.658,3.41-26.529,10.554,29.011,39.933,38.518,46.837" transform="translate(-11.712 -35.202)" fill="#49b265"/>
          <path id="Tracé_55" data-name="Tracé 55" d="M385.326,152.78c35.22,24.914,68.07,52.082,92.9,83.966,14.977,19.237,30.147,41.286,34.328,63.619,7.178,38.311-7.951,79.824-19.571,117.95-12.534,41.115-31.275,86.071-25.959,127.534,2.618,20.514,12.415,37.094,33.019,50.472A153,153,0,0,0,562.52,618.9c44.018,6.053,89.824-1.069,133.312-6.941,45.615-6.136,92.866-13.6,139.248-9.348,32.883,3.008,65.191,13.656,95.789,23.429,46.117,14.734,91.184,31.754,135.586,49.514,28.352,11.333,56.766,22.855,84.757,34.785,55.649,23.716,109.954,49.764,165.027,74.53,40.671,18.293,83.831,38.2,129.446,46.085,6.332,1.092,13.341,1.888,19.672.838,13.386-2.226,8.019-16.414,4.136-22.3a25.29,25.29,0,0,0-1.919-2.448c-11.7-13.646-29.673-24.063-46.23-33.212-7.72-4.276-15.835-8.422-23.854-12.443-76.185-38.214-156.4-72.036-237.233-103.721-74.7-29.283-150.874-57.691-229.118-79.514-38.764-10.81-75.152-19.149-116.4-16.6-33.73,2.082-66.935,8.288-99.982,13.66-41.354,6.724-85.671,13.966-127.668,6.215-22.63-4.165-44.447-13.952-60.75-27.524-18.115-15.076-22.9-35.567-21.834-55.363,2.517-46.557,27.883-93.253,45.265-138.9,8.612-22.6,16.755-45.789,19.187-69.477,2.144-20.694-2.3-38.436-13.25-56.761a291.02,291.02,0,0,0-58.34-69.375,267.072,267.072,0,0,0-26.411-20.106c-29.768-20.051-64.949-37.7-102.877-45.391-9.565-1.934-22.4-3.66-31.6.023-28.544,11.43,39.4,47.737,48.86,54.23" transform="translate(-14.796 -20.86)" fill="#49b265"/>
          <path id="Tracé_56" data-name="Tracé 56" d="M860.773,28.493c33.754,18.663,43.7,45.072,50.151,76.483,7.9,38.369,19.666,75.969,40.3,110.813,13.551,22.925,31.479,51.668,58.028,66.7,30.677,17.371,76.192,8.829,108.58,1.177,48.169-11.381,98.123-29.3,141.572-51,17.058-8.514,26.736-13.091,43.415-3.15,2.366,1.39,5.37,3.377,8.622,1.983,2.5-1.07,4.517-3.9,6.477-6.555a134.472,134.472,0,0,1,14.4-16.676c4.839-4.716,10.932-10.677,10.932-17.246,0-4.313-2.569-7.347-4.743-9.612-3.783-3.951-12.089-15.708-20.011-13.054-6.7,2.247-12.851,7-19.2,10.446a539.667,539.667,0,0,1-52.2,24.333c-59.451,24.519-145.4,54.086-205.58,14.67-42.128-27.6-70.179-64.069-80.038-107.005-6.6-28.762-10.768-57.44-29.446-82.918A70.712,70.712,0,0,0,904.109,5.313C892.319-.061,874.651-2.34,862,3.187,851,8,851.061,22.559,860.773,28.493Z" transform="translate(-38.329 0)" fill="#49b265"/>
          <path id="Tracé_57" data-name="Tracé 57" d="M793.261,48.2c-8.463.13-14.049,7.235-11.172,13.342a8.614,8.614,0,0,0,2.477,2.938c18.681,13.915,34.2,31.781,42.26,51.27,3.549,8.591,6.415,17.468,9.1,26.327,5.078,16.732,10.32,33.562,15.036,50.359,5.242,18.657,10.156,37.545,15.8,56.1,2.483,8.128,5.129,16.321,7.9,24.375C883.333,297.9,894,322.7,908.345,345.706c10.579,16.973,23.167,31.605,47.569,35.621,24.623,4.048,51.784-.643,75.352-5.505,65.224-13.466,129.094-38.318,191.576-60.028,11.109-3.858,23.946-9.479,35.439-8.549,9.592.777,18.619,4.834,27.8,8.618a22,22,0,0,0,6.1,1.79,5.691,5.691,0,0,0,4.13-1.05c1.918-1.485,2.912-4.668,3.69-7.827,1.258-5.089,2.449-10.219,3.611-15.331.412-1.79.813-3.557,1.236-5.288,1.591-6.532,2.855-13.832.373-20.355a25.465,25.465,0,0,0-7.521-10.177c-6.8-5.977-17.022-16.316-28.775-14.267-8.83,1.54-17.237,5.473-25.429,8.683-18.411,7.207-37.115,14.031-55.638,20.965-22.061,8.262-44.5,16.3-67.142,23.089-34.53,10.344-76.232,22.1-113.792,16.654-32.838-4.788-54.267-28.991-70.736-50.3-21.717-28.094-34.344-59.917-43.242-92.595-4.124-15.132-7.1-30.708-11.324-45.715-3.662-13.027-8.531-25.994-15.911-37.651a78.53,78.53,0,0,0-23.065-23.315C829.585,54.409,810.329,47.937,793.261,48.2Z" transform="translate(-35.083 -10.43)" fill="#49b265"/>
          <path id="Tracé_58" data-name="Tracé 58" d="M719.784,76.637c-5.806-.463-16.226-.042-16.17,7.027a4.061,4.061,0,0,0,.983,2.355c13.362,18.313,31.853,33.509,42.313,53.2,4.817,9.071,9.036,18.5,12.95,27.884,7.342,17.749,14.351,35.993,20.58,53.9,6.981,20.066,11.967,41.007,17.209,61.638,2.395,9.4,4.778,18.831,7.252,28.217,7.562,28.638,16.068,57.359,28.069,84.8,8.342,19.077,17.09,42.506,38.286,55.014,21.93,12.952,51.457,10.075,76.244,6.888,84.575-10.894,163.728-43.584,247.331-59.746,16.576-3.2,35.326-7.822,51.874-4.394,13.6,2.822,26.584,9.145,39.642,13.627a28.841,28.841,0,0,0,7.771,1.716,5.858,5.858,0,0,0,4.609-1.466c1.615-1.619,2.1-4.885,2.112-8.234a148.289,148.289,0,0,0-1.017-16.8c-.22-1.952-.508-3.895-.774-5.778-.988-7.077-2.592-14.562-6.506-20.922a40.887,40.887,0,0,0-9.889-10.524c-11.013-8.234-22.935-17.282-38.969-16.653-11.3.463-22.252,3.8-32.892,6.592-20.992,5.509-41.657,11.481-62.125,18.128-24.246,7.864-48.57,16.153-73,23.494-38.789,11.648-83.022,24.817-125.193,23.559-42.51-1.267-59.73-29.6-75.866-57.336C852.353,304.575,839.234,263,828,221.381c-4.721-17.485-9.771-34.984-15.176-52.271-4.281-13.7-9.076-27.514-16.079-40.142a94.549,94.549,0,0,0-20.552-25.224C761.82,91.139,740.088,78.2,719.784,76.637Z" transform="translate(-31.593 -16.558)" fill="#49b265"/>
          <path id="Tracé_59" data-name="Tracé 59" d="M641.916,90.971c-7.411-2.474-17.812-5.788-25.618-3.4a1.563,1.563,0,0,0-1.168,1.036c-1.129,7.351,11.852,16.667,17.1,21.873,10.007,9.889,20.392,19.742,28.784,30.514,7.337,9.409,14.268,19.233,20.538,29.127A381.831,381.831,0,0,1,712.307,229.9c8.528,20.925,15.03,41.148,18.117,63.164,1.355,9.672,2.348,19.511,3.245,29.266,2.7,29.3,4.363,59.1,11.119,87.733,5.08,21.5,12.3,45.277,26.724,64.265,15.34,20.2,40.636,30.838,67.925,33.288,98.91,8.923,199.688-38.517,298.727-46.941,33.2-2.825,65.678,3.542,96.014,14.36,29.495,10.514,57.687,26.547,88.118,35.628,3.573,1.063,6.688,1.66,8.771,1.262,1.456-.282,2.286-1.207,1.981-3.37-.356-2.538-2.359-6.755-4.707-11.152-3.821-7.157-7.9-14.3-12.05-21.332q-2.133-3.6-4.188-6.935c-4.662-7.689-9.38-15.766-15.611-22.456a85.016,85.016,0,0,0-13.105-11.637c-15.43-10.9-32.17-21.684-53.216-23.3-35.286-2.714-76.379,7.074-109.424,14.887-26.058,6.163-52.122,13.352-78.146,19.88-43.283,10.823-89.174,22.123-134.924,22.682-20.764.254-40.591-3.491-55.677-15.84-14.527-11.891-22.282-28.831-30-43.959-23.067-45.193-37.47-93.128-52.076-140.758-6.208-20.306-13.991-40.3-21.215-60.386-5.441-15.16-11.085-30.473-18.591-44.805a131.873,131.873,0,0,0-20.025-28.378A166.411,166.411,0,0,0,641.916,90.971Z" transform="translate(-27.617 -18.774)" fill="#49b265"/>
          <path id="Tracé_60" data-name="Tracé 60" d="M548.542,80.625c-10.055-4.367-21.5-8.9-33.173-10.029a20.07,20.07,0,0,0-3.284-.079c-11,.37,11.139,16.653,13.147,18.2,12.7,9.816,26.188,19.1,38.082,29.471,10.422,9.094,20.579,18.651,29.946,28.449,17.819,18.651,33.557,38.977,45.705,60.441s16.194,41.85,14.485,65.363a278.549,278.549,0,0,1-4.226,30.6c-5.767,30.85-15.066,61.889-19.36,92.813-3.1,22.3-3.12,44.769,2,67.1,5.733,25.021,20.584,44.408,46.794,56.375,51.641,23.536,118.9,12.647,175.943,2.216,52.476-9.589,109.467-27.4,163.845-24.286,66.329,3.8,133.127,30.609,191.641,54.187,34.573,13.928,68.7,28.99,102.826,43.834,26.848,11.685,54,24.762,82.061,33.431,4.977,1.54,10.569,3.418,16,3.489,2.539.031,4.164-.884,3.549-3.364-1.016-4.094-4.221-8.137-6.771-11.759a247.389,247.389,0,0,0-20.043-24.235q-3.842-4.163-7.617-8.007a244.649,244.649,0,0,0-27.959-25.072,272.653,272.653,0,0,0-24.438-16.19c-39.538-23.333-82.382-43.455-127.659-57.393-24.562-7.568-50.569-13.78-77.112-15.446-23.857-1.494-48.352,1.739-71.458,5.648-26.125,4.422-52.239,10.441-78.213,15.968-43.668,9.3-88.527,18.425-134.018,18.212-21.64-.1-43.629-3.585-61.64-13.877-19.388-11.1-30.064-26.95-37.936-44.306-22.418-49.469-26.938-102.827-33.252-155.863-3.064-25.706-8.594-49.7-19.032-73.981-7.335-17.028-15.749-34.046-25.99-49.894a223.353,223.353,0,0,0-24.574-31.224C613.207,116.244,582.291,95.275,548.542,80.625Z" transform="translate(-22.857 -15.255)" fill="#49b265"/>
          <path id="Tracé_61" data-name="Tracé 61" d="M584.736,268.636c-4.38,43.022-27.24,85.47-44.1,126.832-16.527,40.547-37.09,93.742-8.179,130.764,24.875,31.85,81.919,39.895,127.312,37.526,46.8-2.447,92.35-13.041,138.07-20.859,21.291-3.641,42.791-6.883,64.522-8.059,24.587-1.323,47.069,1.85,70.663,7.485,87.033,20.817,170.464,54.189,251.1,87.372,62.129,25.577,123.5,52.783,185.14,79.373,23.577,10.177,47.177,20.354,71.239,29.759,14.4,5.621,29.741,12.2,45.546,14.438,4,.569,7.247.217,7.535-1.85,1.434-10.3-14.365-24.31-22.623-32.137-13.942-13.217-31.271-24.259-48.667-34.505-105.174-61.961-225.978-112.061-347.984-149.069-38.27-11.607-81.462-25.688-122.971-25.1-34.584.49-68.778,7.3-102.318,13.624C776.2,537.959,645.6,563.249,615.77,488.053c-15.872-40.015-8.6-86.354-.954-129.066C622,318.81,636.508,274.243,626.98,234.247c-7.586-31.85-33.376-63.219-58.929-87.733-29.566-28.353-67.836-50.84-109.007-66.642-11.5-4.413-24.672-9.025-37.615-9.372-22.014-.592-4.036,14.16,3.387,19.351,14.523,10.149,31.045,18.361,45.721,28.219,36.294,24.37,69.941,52.08,93.417,85.234C578.911,224.444,587.231,244.128,584.736,268.636Z" transform="translate(-18.447 -15.254)" fill="#49b265"/>
        </g>
      </g>
    </g>
  </g>
</svg>
