<svg xmlns="http://www.w3.org/2000/svg" width="172.64" height="178.718" viewBox="0 0 172.64 178.718">
  <path id="facebook" d="M172.64,89.975c0-49.648-38.65-89.9-86.32-89.9S0,40.327,0,89.975c0,44.876,31.564,82.066,72.833,88.808V115.964H50.914v-26H72.833V70.174c0-22.528,12.89-34.979,32.607-34.979a127.375,127.375,0,0,1,19.321,1.761V59.079H113.871c-10.725,0-14.07,6.93-14.07,14.04V89.975H123.74l-3.827,26H99.8v62.819C141.076,172.041,172.64,134.844,172.64,89.975Z" transform="translate(0 -0.073)"/>
</svg>
