<svg xmlns="http://www.w3.org/2000/svg" width="172.64" height="178.72" viewBox="0 0 172.64 178.72">
  <path id="google" d="M90.17,81.318v24.425h57.876c-1.772,13.7-6.3,23.733-13.192,30.777-8.467,8.541-21.652,17.872-44.684,17.872-35.634,0-63.487-28.99-63.487-64.935S54.537,24.522,90.17,24.522A61.272,61.272,0,0,1,133.777,42L150.808,24.82C136.435,10.723,117.138,0,90.17,0,41.352,0,.307,40.115.307,89.36s41.045,89.36,89.863,89.36c26.377,0,46.264-8.735,61.811-25.021,15.946-16.085,20.965-38.819,20.965-57.094a79.1,79.1,0,0,0-1.277-15.288Z" transform="translate(-0.307)"/>
</svg>
