<svg xmlns="http://www.w3.org/2000/svg" xmlns:xlink="http://www.w3.org/1999/xlink" width="1920.5" height="896.047" viewBox="0 0 1920.5 896.047">
  <defs>
    <linearGradient id="linear-gradient" x1="0.5" y1="1" x2="0.5" gradientUnits="objectBoundingBox">
      <stop offset="0" stop-color="gray" stop-opacity="0.251"/>
      <stop offset="0.535" stop-color="gray" stop-opacity="0.122"/>
      <stop offset="1" stop-color="gray" stop-opacity="0.102"/>
    </linearGradient>
  </defs>
  <g id="Rectangle_1" data-name="Rectangle 1" transform="translate(960.5)" fill="#061a23" stroke="#707070" stroke-width="1">
    <rect width="960" height="895" stroke="none"/>
    <rect x="0.5" y="0.5" width="959" height="894" fill="none"/>
  </g>
  <g id="undraw_augmented_reality_heuy" transform="translate(894.5 171.283)">
    <path id="Tracé_30" data-name="Tracé 30" d="M1095.5,359.9V507.551h-800V402.361A418.248,418.248,0,0,1,373.652,246.4l558.371-89.941A422.272,422.272,0,0,1,980.082,193.1l-331,126.261,366.439-91.08a421.7,421.7,0,0,1,40.836,53.73L981.576,337.93l84.5-39.992a420.528,420.528,0,0,1,21.156,41.679Q1091.62,349.631,1095.5,359.9Z" transform="translate(-104.5 -88.141)" fill="#f2f2f2"/>
    <path id="Tracé_31" data-name="Tracé 31" d="M886.321,130.5a418.543,418.543,0,0,0-184.07-42.359C572.437,88.141,456.376,147,379.289,239.49,511.294,210.567,741.126,160.5,886.321,130.5Z" transform="translate(-104.5 -88.141)" fill="#f2f2f2"/>
    <path id="Tracé_32" data-name="Tracé 32" d="M1095.5,364.985V620.631H301.66a12.365,12.365,0,0,1-6.16-10.692V397.711a58.085,58.085,0,0,1,58.1-58.093h716.53a25.369,25.369,0,0,1,25.368,25.365Z" transform="translate(-104.5 -88.141)" fill="#2f2e41"/>
    <path id="Tracé_33" data-name="Tracé 33" d="M1017.02,609.846c0-10.162-5.156-18.4-11.517-18.4-4,0-7.519,3.256-9.584,8.2a5.778,5.778,0,0,0-2.2-.442,6.9,6.9,0,0,0-5.157,2.656c-1.861-6.161-5.809-10.411-10.378-10.411-4.272,0-8,3.719-9.986,9.237a6.291,6.291,0,0,0-3.942-1.482c-4.881,0-8.839,6.322-8.839,14.121a20.58,20.58,0,0,0,1.393,7.6H1014.7a26.17,26.17,0,0,0,2.323-11.079Z" transform="translate(-104.5 -88.141)" fill="#3f3d56"/>
    <path id="Tracé_34" data-name="Tracé 34" d="M430.521,604.773c0-14.545-5.156-26.336-11.517-26.336-4,0-7.519,4.66-9.584,11.732a4.32,4.32,0,0,0-2.2-.632c-1.925,0-3.705,1.412-5.157,3.8-1.862-8.818-5.809-14.9-10.378-14.9-4.272,0-8,5.322-9.986,13.221a5.348,5.348,0,0,0-3.942-2.122c-4.882,0-8.839,9.049-8.839,20.211a40.9,40.9,0,0,0,1.393,10.883H428.2a51.523,51.523,0,0,0,2.323-15.858Z" transform="translate(-104.5 -88.141)" fill="#3f3d56"/>
    <path id="Tracé_35" data-name="Tracé 35" d="M361.323,461.981h5.907a10.156,10.156,0,0,1,10.127,10.127v64.135a17.722,17.722,0,0,0,17.721,17.721h0A17.722,17.722,0,0,0,412.8,536.243V380.968a10.156,10.156,0,0,1,10.127-10.127h5.907a10.156,10.156,0,0,1,10.127,10.127V536.243a17.722,17.722,0,0,0,17.721,17.721h0A17.722,17.722,0,0,0,474.4,536.243V441.728A10.156,10.156,0,0,1,484.53,431.6h5.907a10.156,10.156,0,0,1,10.127,10.127v94.515a17.722,17.722,0,0,0,17.722,17.721h0a17.722,17.722,0,0,0,17.721-17.721V507.551a10.156,10.156,0,0,1,10.127-10.127h5.907a10.156,10.156,0,0,1,10.127,10.127v28.692a17.721,17.721,0,0,0,17.721,17.721h0a17.722,17.722,0,0,0,17.721-17.721V435.821a10.156,10.156,0,0,1,10.126-10.127h5.907a10.156,10.156,0,0,1,10.127,10.127V536.243a17.722,17.722,0,0,0,17.721,17.721h0a17.722,17.722,0,0,0,17.721-17.721V408.816a10.156,10.156,0,0,1,10.127-10.127h5.907a10.156,10.156,0,0,1,10.127,10.127V536.243a17.722,17.722,0,0,0,17.721,17.721h0a17.722,17.722,0,0,0,17.721-17.721V472.108a10.156,10.156,0,0,1,10.127-10.127h5.907a10.156,10.156,0,0,1,10.127,10.127v64.135A17.722,17.722,0,0,0,764.7,553.964h0a17.722,17.722,0,0,0,17.721-17.721V441.728A10.156,10.156,0,0,1,792.546,431.6h5.907a10.156,10.156,0,0,1,10.127,10.127v94.515A17.722,17.722,0,0,0,826.3,553.964h7.91a18.305,18.305,0,0,0,12.836-5.5,10.07,10.07,0,0,1,7.1-2.934h5.907a10.07,10.07,0,0,1,7.1,2.934,18.3,18.3,0,0,0,12.836,5.5h7.91a17.722,17.722,0,0,0,17.721-17.721V526.96a10.156,10.156,0,0,1,10.127-10.127h5.907a10.156,10.156,0,0,1,10.127,10.127v9.283a17.722,17.722,0,0,0,17.721,17.721h0a17.722,17.722,0,0,0,17.721-17.721V435.821a10.156,10.156,0,0,1,10.127-10.127h5.907a10.156,10.156,0,0,1,10.127,10.127V536.243a17.722,17.722,0,0,0,17.721,17.721h0a17.722,17.722,0,0,0,17.721-17.721V472.108a10.156,10.156,0,0,1,10.127-10.127h5.907a10.1,10.1,0,0,1,7.595,3.462V367.616a35.593,35.593,0,0,0-35.593-35.592H381.888A30.692,30.692,0,0,0,351.2,362.715V472.108a10.156,10.156,0,0,1,10.127-10.127Z" transform="translate(-104.5 -88.141)" fill="#3f3d56"/>
    <rect id="Rectangle_12" data-name="Rectangle 12" width="4.958" height="195.826" transform="translate(746.949 262.821)" fill="#2f2e41"/>
    <path id="Tracé_36" data-name="Tracé 36" d="M902.158,375.922c.278,59.857-36.5,109.975-45.755,121.637-1.342,1.679-2.1,2.565-2.1,2.565s-1.055-1.2-2.852-3.46c-9.7-12.177-41.038-55.241-45.595-108.194-.034-.371-.068-.743-.093-1.114q-.43-5.43-.464-11a154.425,154.425,0,0,1,2.329-27.139c.076-.5.169-.987.253-1.485,9.958-54.726,45.274-95.578,45.274-95.578a207.6,207.6,0,0,1,19.89,28.321c.152.253.3.506.447.76a231.744,231.744,0,0,1,12.211,23.6c.135.279.253.557.371.835C894.884,325.618,902.04,349.812,902.158,375.922Z" transform="translate(-104.5 -88.141)" fill="#edf5e1"/>
    <rect id="Rectangle_13" data-name="Rectangle 13" width="4.958" height="195.826" transform="translate(442.308 225.69)" fill="#2f2e41"/>
    <path id="Tracé_37" data-name="Tracé 37" d="M597.518,338.787C597.834,407.262,549.658,463,549.658,463s-48.688-55.287-49-123.762,47.861-124.209,47.861-124.209S597.2,270.312,597.518,338.787Z" transform="translate(-104.5 -88.141)" fill="#edf5e1"/>
    <path id="Tracé_38" data-name="Tracé 38" d="M463.589,390.161c-1.368,2.183-3.144,2.132-4.745,1.128s-2.421-2.579-1.052-4.762,6.008-3.143,6.008-3.143S464.958,387.978,463.589,390.161Z" transform="translate(-104.5 -88.141)" opacity="0.1"/>
    <path id="Tracé_39" data-name="Tracé 39" d="M787.64,416.321c-1.368,2.183-3.144,2.132-4.745,1.128s-2.421-2.579-1.052-4.762,6.008-3.143,6.008-3.143S789.008,414.138,787.64,416.321Z" transform="translate(-104.5 -88.141)" opacity="0.1"/>
    <path id="Tracé_40" data-name="Tracé 40" d="M610.07,402.92c.576,2.511-.716,3.73-2.557,4.153s-3.536-.112-4.111-2.623,2.026-6.471,2.026-6.471S609.494,400.409,610.07,402.92Z" transform="translate(-104.5 -88.141)" opacity="0.1"/>
    <path id="Tracé_41" data-name="Tracé 41" d="M899.522,494.06c.576,2.511-.716,3.73-2.557,4.153s-3.536-.112-4.111-2.623,2.026-6.471,2.026-6.471S898.946,491.548,899.522,494.06Z" transform="translate(-104.5 -88.141)" opacity="0.1"/>
    <path id="Tracé_42" data-name="Tracé 42" d="M585.654,443.71c.99,4.316-1.23,6.412-4.4,7.137s-6.077-.193-7.066-4.509,3.482-11.121,3.482-11.121S584.664,439.394,585.654,443.71Z" transform="translate(-104.5 -88.141)" opacity="0.1"/>
    <path id="Tracé_43" data-name="Tracé 43" d="M708.6,465.315c-2.075,3.912-5.125,4.044-7.994,2.522s-4.469-4.122-2.394-8.033,9.91-6.132,9.91-6.132S710.672,461.4,708.6,465.315Z" transform="translate(-104.5 -88.141)" opacity="0.1"/>
    <path id="Tracé_44" data-name="Tracé 44" d="M831.443,509.96c-.577,4.39-3.388,5.58-6.608,5.158s-5.628-2.3-5.051-6.689,7.14-9.21,7.14-9.21S832.02,505.569,831.443,509.96Z" transform="translate(-104.5 -88.141)" opacity="0.1"/>
    <rect id="Rectangle_14" data-name="Rectangle 14" width="120.255" height="0.844" transform="matrix(0.696, -0.718, 0.718, 0.696, 395.734, 273.097)" fill="#3f3d56"/>
    <rect id="Rectangle_15" data-name="Rectangle 15" width="120.255" height="0.844" transform="matrix(0.696, -0.718, 0.718, 0.696, 404.173, 301.789)" fill="#3f3d56"/>
    <path id="Tracé_45" data-name="Tracé 45" d="M873.492,281.238l-65.865,67.983c.076-.5.169-.987.253-1.485l65.165-67.257C873.2,280.732,873.348,280.985,873.492,281.238Z" transform="translate(-104.5 -88.141)" fill="#3f3d56"/>
    <rect id="Rectangle_16" data-name="Rectangle 16" width="120.255" height="0.844" transform="translate(704.629 327.138) rotate(-45.909)" fill="#3f3d56"/>
    <path id="Tracé_46" data-name="Tracé 46" d="M886.074,305.677,805.855,388.47l-1.19,1.232-.608-.591,1.7-1.755L885.7,304.842C885.838,305.12,885.956,305.4,886.074,305.677Z" transform="translate(-104.5 -88.141)" fill="#3f3d56"/>
    <path id="Tracé_47" data-name="Tracé 47" d="M542.4,290.81H531.848V280.258H542.4ZM532.66,290h8.929v-8.929H532.66Z" transform="translate(-104.5 -88.141)" fill="#2f2e41"/>
    <path id="Tracé_48" data-name="Tracé 48" d="M856.325,430.895H845.772V420.342h10.553Zm-9.741-.812h8.929v-8.929h-8.929Z" transform="translate(-104.5 -88.141)" fill="#2f2e41"/>
    <circle id="Ellipse_15" data-name="Ellipse 15" cx="12.591" cy="12.591" r="12.591" transform="translate(305.903 83.833)" fill="#edf5e1" opacity="0.4"/>
    <circle id="Ellipse_16" data-name="Ellipse 16" cx="8.832" cy="8.832" r="8.832" transform="translate(286.359 93.605)" fill="#edf5e1" opacity="0.4"/>
    <circle id="Ellipse_17" data-name="Ellipse 17" cx="26.369" cy="26.369" r="26.369" transform="translate(841.237 37.771)" fill="#edf5e1" opacity="0.4"/>
    <circle id="Ellipse_18" data-name="Ellipse 18" cx="18.498" cy="18.498" r="18.498" transform="translate(811.488 79.184)" fill="#edf5e1" opacity="0.4"/>
    <path id="Tracé_49" data-name="Tracé 49" d="M446.5,564.008l-.8-.016a185.878,185.878,0,0,1,2.845-26.564c3.466-18.787,9.229-31.126,17.129-36.673l.46.656C447.681,514.369,446.512,563.513,446.5,564.008Z" transform="translate(-104.5 -88.141)" fill="#2f2e41"/>
    <path id="Tracé_50" data-name="Tracé 50" d="M456.521,563.816l-.8-.016c.017-.888.518-21.806,8.753-27.588l.46.656C457.031,542.417,456.525,563.6,456.521,563.816Z" transform="translate(-104.5 -88.141)" fill="#2f2e41"/>
    <circle id="Ellipse_19" data-name="Ellipse 19" cx="4.007" cy="4.007" r="4.007" transform="translate(362.188 405.328)" fill="#edf5e1"/>
    <circle id="Ellipse_20" data-name="Ellipse 20" cx="4.007" cy="4.007" r="4.007" transform="translate(360.204 439.792)" fill="#edf5e1"/>
    <path id="Tracé_51" data-name="Tracé 51" d="M454.653,503.886a17.8,17.8,0,0,1-1.21,9.113,16.222,16.222,0,0,1-2.727-17.42A17.8,17.8,0,0,1,454.653,503.886Z" transform="translate(-104.5 -88.141)" fill="#2f2e41"/>
    <path id="Tracé_52" data-name="Tracé 52" d="M467.753,515.57a17.8,17.8,0,0,1-9.185.4,16.222,16.222,0,0,1,16.679-5.721,17.8,17.8,0,0,1-7.494,5.324Z" transform="translate(-104.5 -88.141)" fill="#2f2e41"/>
    <path id="Tracé_53" data-name="Tracé 53" d="M467.9,546.091a12.477,12.477,0,0,1-6.438.278,11.371,11.371,0,0,1,11.69-4.01A12.476,12.476,0,0,1,467.9,546.091Z" transform="translate(-104.5 -88.141)" fill="#2f2e41"/>
    <path id="Tracé_54" data-name="Tracé 54" d="M273.571,723.717H0v-2H272.775Z" transform="translate(70.429)" fill="#2f2e41"/>
    <path id="Tracé_55" data-name="Tracé 55" d="M177.985,781.92s-6.035,25.236-.549,26.334,32.368.743,38.952,1.84,20.3-.743,20.3-5.681-14.264-8.229-14.264-8.229-20.3-10.972-20.847-11.521S177.985,781.92,177.985,781.92Z" transform="translate(-104.5 -88.141)" fill="#2f2e41"/>
    <path id="Tracé_56" data-name="Tracé 56" d="M182.923,633.245s1.646,18.653,1.646,20.3-1.646,27.431,0,28.528-1.1,8.778-1.1,11.521-8.778,48.278-6.583,65.834-3.292,15.91-1.646,17.556,1.646,1.646,1.646,4.938,17.556,6.035,17.556,6.035l19.2-121.244L203.77,630.5Z" transform="translate(-104.5 -88.141)" fill="#575a89"/>
    <path id="Tracé_57" data-name="Tracé 57" d="M182.923,633.245s1.646,18.653,1.646,20.3-1.646,27.431,0,28.528-1.1,8.778-1.1,11.521-8.778,48.278-6.583,65.834-3.292,15.91-1.646,17.556,1.646,1.646,1.646,4.938,17.556,6.035,17.556,6.035l19.2-121.244L203.77,630.5Z" transform="translate(-104.5 -88.141)" opacity="0.1"/>
    <path id="Tracé_58" data-name="Tracé 58" d="M185.666,789.6s-5.486,19.75,0,20.847,32.368-1.257,38.952-.16,20.3,1.257,20.3-3.681-14.264-8.229-14.264-8.229-20.3-10.972-20.847-11.521S185.666,789.6,185.666,789.6Z" transform="translate(-104.5 -88.141)" fill="#2f2e41"/>
    <path id="Tracé_59" data-name="Tracé 59" d="M177.985,611.3s-6.583,15.91,1.1,24.139,16.458,24.688,16.458,25.785S180.18,771.5,182.374,778.629s1.646,11.521,1.1,12.618,5.486,7.132,12.07,7.132S212,793.442,213.1,789.053s-1.646-42.243-1.1-49.375,3.292-17.556,4.389-19.75,7.132-4.389,8.229-10.972,9.875-90.522,7.132-93.265S177.985,611.3,177.985,611.3Z" transform="translate(-104.5 -88.141)" fill="#575a89"/>
    <circle id="Ellipse_21" data-name="Ellipse 21" cx="18.653" cy="18.653" r="18.653" transform="translate(96.527 359.672)" fill="#ffb9b9"/>
    <path id="Tracé_60" data-name="Tracé 60" d="M208.159,475.793s3.84,20.3,1.1,22.493,20.848,5.486,20.848,5.486,2.743-26.882,3.292-29.625S208.159,475.793,208.159,475.793Z" transform="translate(-104.5 -88.141)" fill="#ffb9b9"/>
    <path id="Tracé_61" data-name="Tracé 61" d="M233.4,502.126s-6.583-19.2-33.466-13.715c0,0-4.938,1.646-3.292,3.292s3.292,1.646,1.1,3.292-4.938,0-3.292,1.646-14.813,11.521-13.715,30.174-3.84,44.987,0,49.375-2.743,23.591-1.646,27.431-6.583,8.778-3.292,10.424,62.542,11.521,64.188,0,.549-3.292,2.194-6.035,2.194-7.681,1.1-13.715-3.84-20.847-2.743-26.333,0-51.57-3.292-57.056S233.4,502.126,233.4,502.126Z" transform="translate(-104.5 -88.141)" fill="#edf5e1"/>
    <path id="Tracé_62" data-name="Tracé 62" d="M221.875,635.988s-8.229,31.271,2.194,31.271,9.875-32.368,9.875-32.368Z" transform="translate(-104.5 -88.141)" fill="#ffb9b9"/>
    <path id="Tracé_63" data-name="Tracé 63" d="M227.91,466.466c0,1.591-2.3,2.6-5.876,2.831h-.005a29.89,29.89,0,0,1-4.543-.088c-2.282-.208-3.226,1.937-3.615,4.767-.636,4.669.252,11.214-.773,12.24-1.415,1.415-11.735-.005-14.961-3.215a2.981,2.981,0,0,1-.949-1.723,9.166,9.166,0,0,0-2.754-5.119c-1.9-2.079-4.614-4.383-7.67-8.048-5.486-6.583,0-7.132,1.646-12.069s4.389-6.583,4.389-9.875,12.618-6.035,23.042-5.486S224.07,454.4,224.07,454.4s.62,1.591,1.361,3.643a57.214,57.214,0,0,1,2.436,7.911,3.985,3.985,0,0,1,.044.516Z" transform="translate(-104.5 -88.141)" fill="#2f2e41"/>
    <path id="Tracé_64" data-name="Tracé 64" d="M138.222,356.38v-4.937l-14.812,1.1-2.025,8.193,4.153,5.273,9.941-6.334Z" fill="#575a89"/>
    <path id="Tracé_65" data-name="Tracé 65" d="M138.222,356.38v-4.937l-14.812,1.1-2.025,8.193,4.153,5.273,9.941-6.334Z" opacity="0.1"/>
    <path id="Tracé_66" data-name="Tracé 66" d="M251.5,454.945l-9.875,2.743-9.875,6.035-3.884,2.227-5.832,3.347h-.005l-8.158,4.68L198.136,483a2.981,2.981,0,0,1-.949-1.723,9.166,9.166,0,0,0-2.754-5.119l31-18.121,2.48-1.448,14.813-17.007Z" transform="translate(-104.5 -88.141)" fill="#575a89"/>
    <path id="Tracé_67" data-name="Tracé 67" d="M225.715,510.355s-18.653-1.1-20.3,26.334-1.1,53.216-1.1,53.764S212,643.12,219.132,643.12s12.618-1.1,14.264-3.84-4.389-42.243-4.389-42.243-2.743-41.695,1.646-54.862S235.59,512,225.715,510.355Z" transform="translate(-104.5 -88.141)" opacity="0.1"/>
    <path id="Tracé_68" data-name="Tracé 68" d="M228.458,507.612s-18.653-1.1-20.3,26.334-1.1,53.216-1.1,53.764,7.681,52.667,14.813,52.667,12.618-1.1,14.264-3.84-4.389-42.243-4.389-42.243-2.743-41.695,1.646-54.862S238.333,509.258,228.458,507.612Z" transform="translate(-104.5 -88.141)" fill="#edf5e1"/>
  </g>
  <g id="undraw_Container_ship_ok1c" transform="translate(-21.188 297.774)">
    <path id="Tracé_79" data-name="Tracé 79" d="M0,0H960L801.388,99.432S1097.338-190.288,855.395,26,0,26,0,26Z" transform="translate(21.688 475.61)" fill="#6c63ff" stroke="#6c63ff" stroke-width="1"/>
    <rect id="Rectangle_47" data-name="Rectangle 47" width="73" height="42" transform="translate(86.688 289.61)" fill="#fff"/>
    <circle id="Ellipse_22" data-name="Ellipse 22" cx="21" cy="21" r="21" transform="translate(156.688 141.61)" fill="#6c63ff" stroke="#6c63ff" stroke-miterlimit="10" stroke-width="1"/>
    <path id="Tracé_70" data-name="Tracé 70" d="M232.429,621.629c5.576-20.076,23.108-30.532,39.147-29.695s30.98,10.5,45.358,20.022,29.266,19.278,45.3,20.327c35.629,2.33,65.613-38.126,101.118-42.717,42.208-5.458,79.665,40.385,122.047,42.273,7.453.332,15.055-.767,21.919-4.657,5.974-3.386,11.18-8.751,16.823-13.031,28.476-21.6,64.094-13.445,95.6-1.468s143.665,23.7,175.69,14.5" transform="translate(-136.812 -124.89)" fill="#4d8af0"/>
    <path id="Tracé_71" data-name="Tracé 71" d="M136.812,660.35c8.223-20.076,34.079-30.532,57.735-29.695s45.69,10.5,66.894,20.022S304.6,669.955,328.249,671c52.546,2.33,96.768-38.126,149.131-42.717,62.249-5.458,117.492,40.385,180,42.273,10.992.332,22.2-.767,32.326-4.657,8.811-3.386,16.489-8.751,24.811-13.031,42-21.6,94.526-13.445,140.99-1.468s94.7,27.321,141.929,18.12" transform="translate(-115.124 -119.603)" fill="#4d8af0"/>
    <path id="Tracé_72" data-name="Tracé 72" d="M238.751,697.168c9.155-12.07,37.943-18.357,64.28-17.853s50.869,6.314,74.477,12.038,48.055,11.591,74.381,12.221c58.5,1.4,107.737-22.922,166.037-25.683,69.306-3.282,130.811,24.281,200.4,25.416,12.239.2,24.721-.461,35.991-2.8,9.81-2.036,18.358-5.261,27.623-7.834,46.758-12.987,105.242-8.083,156.973-.883s105.432,16.426,158.017,10.894" transform="translate(-217.063 -124.89)" fill="#4d8af0"/>
    <g id="Groupe_8" data-name="Groupe 8" transform="translate(1418.71 -235.577)" opacity="0.5">
      <path id="Tracé_74" data-name="Tracé 74" d="M399.761,238.812l-6.895-1.22a44.53,44.53,0,0,1,.832-5.07c1.17-14.781-9.079-30.335-23.488-34.258l1.844-6.773c13.129,3.574,23.255,14.561,27.1,27.357A48.519,48.519,0,0,1,430.8,195.9l1.388,6.881c-15.1,3.046-27.943,15.89-31.534,30.859A35.465,35.465,0,0,1,399.761,238.812Z" transform="translate(-370.21 -191.492)" fill="url(#linear-gradient)"/>
    </g>
    <path id="Tracé_75" data-name="Tracé 75" d="M399.969,235.376l-5.894-1.043a38.054,38.054,0,0,1,.711-4.334c1-12.635-7.761-25.93-20.078-29.283l1.576-5.789c11.223,3.055,19.878,12.447,23.162,23.384,1.379-2.36,25.064-15.351,27.054-17.6,5.6-6.327-8.7-.142,0-2.02l1.187,5.882c-9.141,1.844-22.544,16.035-22.544,16.035s-3.514,6.606-4.41,10.342a30.311,30.311,0,0,1-.764,4.421Z" transform="translate(935.319 -373.267)" fill="#706a6a"/>
    <g id="Groupe_9" data-name="Groupe 9" transform="translate(1616.71 -193.601)" opacity="0.5">
      <path id="Tracé_76" data-name="Tracé 76" d="M547.271,175.413l-4.447-.787a28.726,28.726,0,0,1,.537-3.27c.755-9.534-5.856-19.567-15.151-22.1l1.189-4.369c8.469,2.305,15,9.393,17.478,17.646a31.3,31.3,0,0,1,20.415-14.8l.9,4.439c-9.743,1.965-18.024,10.25-20.34,19.9a22.884,22.884,0,0,1-.576,3.336Z" transform="translate(-528.21 -144.89)" fill="url(#linear-gradient)"/>
    </g>
    <g id="Groupe_10" data-name="Groupe 10" transform="translate(676.064 0)" opacity="0.5">
      <path id="Tracé_77" data-name="Tracé 77" d="M818.271,155.413l-4.447-.787a28.713,28.713,0,0,1,.537-3.27c.755-9.534-5.856-19.567-15.151-22.1l1.189-4.369c8.469,2.305,15,9.393,17.478,17.646a31.3,31.3,0,0,1,20.415-14.8l.9,4.439c-9.743,1.965-18.024,10.25-20.34,19.9A22.867,22.867,0,0,1,818.271,155.413Z" transform="translate(-799.21 -124.89)" fill="url(#linear-gradient)"/>
    </g>
    <path id="Tracé_78" data-name="Tracé 78" d="M547.6,170.069l-2.89-.511a18.652,18.652,0,0,1,.349-2.125c.491-6.2-3.806-12.715-9.845-14.359l.773-2.839A16.856,16.856,0,0,1,547.34,161.7a20.337,20.337,0,0,1,13.266-9.619l.582,2.884A17.712,17.712,0,0,0,547.97,167.9a14.866,14.866,0,0,1-.374,2.168Z" transform="translate(1088.5 -338.491)" fill="#706a6a"/>
    <g id="Groupe_11" data-name="Groupe 11" transform="translate(1116.677 397.224)" opacity="0.5">
      <circle id="Ellipse_23" data-name="Ellipse 23" cx="67" cy="67" r="67" transform="translate(0.011 0.002)" fill="url(#linear-gradient)"/>
    </g>
  </g>
</svg>
