<svg xmlns="http://www.w3.org/2000/svg" width="194.704" height="120.115" viewBox="0 0 194.704 120.115">
  <path id="nvidia" d="M72.592,39.892V29.071q1.717-.119,3.44-.136c31.818-.938,52.676,25.53,52.676,25.53S106.2,83.6,82.06,83.6a31.738,31.738,0,0,1-9.394-1.4V49.32c12.4,1.4,14.9,6.485,22.286,18.047L111.5,54.4S99.4,39.627,79.05,39.627a52.3,52.3,0,0,0-6.458.265m0-35.829V20.241l3.44-.2c44.214-1.4,73.1,33.823,73.1,33.823s-33.1,37.561-67.579,37.561a56.093,56.093,0,0,1-8.883-.734v10.026a69.065,69.065,0,0,0,7.383.469c32.1,0,55.329-15.308,77.825-33.354,3.724,2.807,18.984,9.557,22.148,12.5-21.361,16.707-71.165,30.146-99.4,30.146a76.424,76.424,0,0,1-7.877-.4v14.1H194.7V4.063Zm0,78.135v8.558C42.924,85.807,34.682,57.008,34.682,57.008A65.826,65.826,0,0,1,72.592,39.892v9.36h-.065c-12.4-1.407-22.148,9.421-22.148,9.421S55.9,76.923,72.6,82.205M19.925,55.8S37.481,31.606,72.657,29.064V20.241C33.692,23.184,0,53.928,0,53.928S19.065,105.4,72.592,110.074v-9.36C33.327,96.173,19.925,55.8,19.925,55.8Z" transform="translate(0 -4.063)"/>
</svg>
