<svg height="896.047" width="1920.5" xmlns="http://www.w3.org/2000/svg"><defs><linearGradient gradientUnits="objectBoundingBox" x2=".5" y1="1" x1=".5" id="a"><stop stop-opacity=".251" stop-color="gray" offset="0"></stop><stop stop-opacity=".122" stop-color="gray" offset=".535"></stop><stop stop-opacity=".102" stop-color="gray" offset="1"></stop></linearGradient></defs><g stroke="#707070" fill="#061a23" data-name="Rectangle 1"><path d="M960.5 0h960v895h-960z" stroke="none"></path><path d="M961 .5h959v894H961z" fill="none"></path></g><g transform="translate(894.5 171.283)"><path fill="#f2f2f2" d="M991 271.759V419.41H191V314.22a418.248 418.248 0 0 1 78.152-155.961l558.371-89.941a422.272 422.272 0 0 1 48.059 36.641l-331 126.261 366.439-91.08a421.7 421.7 0 0 1 40.836 53.73l-74.781 55.919 84.5-39.992a420.528 420.528 0 0 1 21.156 41.679q4.388 10.014 8.268 20.283z" data-name="Trac 30"></path><path fill="#f2f2f2" d="M781.821 42.359A418.543 418.543 0 0 0 597.751 0C467.937 0 351.876 58.859 274.789 151.349c132.005-28.923 361.837-78.99 507.032-108.99z" data-name="Trac 31"></path><path fill="#2f2e41" d="M991 276.844V532.49H197.16a12.365 12.365 0 0 1-6.16-10.692V309.57a58.085 58.085 0 0 1 58.1-58.093h716.53a25.369 25.369 0 0 1 25.368 25.365z" data-name="Trac 32"></path><path fill="#3f3d56" d="M912.52 521.705c0-10.162-5.156-18.4-11.517-18.4-4 0-7.519 3.256-9.584 8.2a5.778 5.778 0 0 0-2.2-.442 6.9 6.9 0 0 0-5.157 2.656c-1.861-6.161-5.809-10.411-10.378-10.411-4.272 0-8 3.719-9.986 9.237a6.291 6.291 0 0 0-3.942-1.482c-4.881 0-8.839 6.322-8.839 14.121a20.58 20.58 0 0 0 1.393 7.6h57.89a26.17 26.17 0 0 0 2.323-11.079z" data-name="Trac 33"></path><path fill="#3f3d56" d="M326.021 516.632c0-14.545-5.156-26.336-11.517-26.336-4 0-7.519 4.66-9.584 11.732a4.32 4.32 0 0 0-2.2-.632c-1.925 0-3.705 1.412-5.157 3.8-1.862-8.818-5.809-14.9-10.378-14.9-4.272 0-8 5.322-9.986 13.221a5.348 5.348 0 0 0-3.942-2.122c-4.882 0-8.839 9.049-8.839 20.211a40.9 40.9 0 0 0 1.393 10.883H323.7a51.523 51.523 0 0 0 2.323-15.858z" data-name="Trac 34"></path><path fill="#3f3d56" d="M256.823 373.84h5.907a10.156 10.156 0 0 1 10.127 10.127v64.135a17.722 17.722 0 0 0 17.721 17.721 17.722 17.722 0 0 0 17.722-17.721V292.827a10.156 10.156 0 0 1 10.127-10.127h5.907a10.156 10.156 0 0 1 10.127 10.127v155.275a17.722 17.722 0 0 0 17.721 17.721 17.722 17.722 0 0 0 17.718-17.721v-94.515a10.156 10.156 0 0 1 10.13-10.128h5.907a10.156 10.156 0 0 1 10.127 10.127v94.515a17.722 17.722 0 0 0 17.722 17.721 17.722 17.722 0 0 0 17.721-17.721V419.41a10.156 10.156 0 0 1 10.127-10.127h5.907a10.156 10.156 0 0 1 10.127 10.127v28.692a17.721 17.721 0 0 0 17.721 17.721 17.722 17.722 0 0 0 17.721-17.721V347.68a10.156 10.156 0 0 1 10.126-10.127h5.907a10.156 10.156 0 0 1 10.127 10.127v100.422a17.722 17.722 0 0 0 17.721 17.721 17.722 17.722 0 0 0 17.721-17.721V320.675a10.156 10.156 0 0 1 10.127-10.127h5.907a10.156 10.156 0 0 1 10.127 10.127v127.427a17.722 17.722 0 0 0 17.721 17.721 17.722 17.722 0 0 0 17.721-17.721v-64.135a10.156 10.156 0 0 1 10.127-10.127h5.907a10.156 10.156 0 0 1 10.127 10.127v64.135a17.722 17.722 0 0 0 17.724 17.721 17.722 17.722 0 0 0 17.721-17.721v-94.515a10.156 10.156 0 0 1 10.125-10.128h5.907a10.156 10.156 0 0 1 10.127 10.127v94.515a17.722 17.722 0 0 0 17.72 17.722h7.91a18.305 18.305 0 0 0 12.836-5.5 10.07 10.07 0 0 1 7.1-2.934h5.907a10.07 10.07 0 0 1 7.1 2.934 18.3 18.3 0 0 0 12.836 5.5h7.91a17.722 17.722 0 0 0 17.721-17.721v-9.283a10.156 10.156 0 0 1 10.127-10.127h5.907a10.156 10.156 0 0 1 10.127 10.127v9.283a17.722 17.722 0 0 0 17.721 17.721 17.722 17.722 0 0 0 17.721-17.721V347.68a10.156 10.156 0 0 1 10.127-10.127h5.907a10.156 10.156 0 0 1 10.127 10.127v100.422a17.722 17.722 0 0 0 17.721 17.721 17.722 17.722 0 0 0 17.721-17.721v-64.135a10.156 10.156 0 0 1 10.127-10.127h5.907a10.1 10.1 0 0 1 7.595 3.462v-97.827a35.593 35.593 0 0 0-35.593-35.592H277.388a30.692 30.692 0 0 0-30.688 30.691v109.393a10.156 10.156 0 0 1 10.127-10.127z" data-name="Trac 35"></path><path d="M746.949 262.821h4.958v195.826h-4.958z" fill="#2f2e41" data-name="Rectangle 12"></path><path fill="#edf5e1" d="M797.658 287.781c.278 59.857-36.5 109.975-45.755 121.637-1.342 1.679-2.1 2.565-2.1 2.565s-1.055-1.2-2.852-3.46c-9.7-12.177-41.038-55.241-45.595-108.194a46.446 46.446 0 0 1-.093-1.114q-.43-5.43-.464-11a154.425 154.425 0 0 1 2.329-27.139c.076-.5.169-.987.253-1.485 9.958-54.726 45.274-95.578 45.274-95.578a207.6 207.6 0 0 1 19.89 28.321c.152.253.3.506.447.76a231.744 231.744 0 0 1 12.211 23.6c.135.279.253.557.371.835 8.81 19.948 15.966 44.142 16.084 70.252z" data-name="Trac 36"></path><path d="M442.308 225.69h4.958v195.826h-4.958z" fill="#2f2e41" data-name="Rectangle 13"></path><path fill="#edf5e1" d="M493.018 250.646c.316 68.475-47.86 124.213-47.86 124.213s-48.688-55.287-49-123.762 47.861-124.209 47.861-124.209 48.681 55.283 48.999 123.758z" data-name="Trac 37"></path><path opacity=".1" d="M359.089 302.02c-1.368 2.183-3.144 2.132-4.745 1.128s-2.421-2.579-1.052-4.762 6.008-3.143 6.008-3.143 1.158 4.594-.211 6.777z" data-name="Trac 38"></path><path opacity=".1" d="M683.14 328.18c-1.368 2.183-3.144 2.132-4.745 1.128s-2.421-2.579-1.052-4.762 6.008-3.143 6.008-3.143 1.157 4.594-.211 6.777z" data-name="Trac 39"></path><path opacity=".1" d="M505.57 314.779c.576 2.511-.716 3.73-2.557 4.153s-3.536-.112-4.111-2.623 2.026-6.471 2.026-6.471 4.066 2.43 4.642 4.941z" data-name="Trac 40"></path><path opacity=".1" d="M795.022 405.919c.576 2.511-.716 3.73-2.557 4.153s-3.536-.112-4.111-2.623 2.026-6.471 2.026-6.471 4.066 2.429 4.642 4.941z" data-name="Trac 41"></path><path opacity=".1" d="M481.154 355.569c.99 4.316-1.23 6.412-4.4 7.137s-6.077-.193-7.066-4.509 3.482-11.121 3.482-11.121 6.994 4.177 7.984 8.493z" data-name="Trac 42"></path><path opacity=".1" d="M604.1 377.174c-2.075 3.912-5.125 4.044-7.994 2.522s-4.469-4.122-2.394-8.033 9.91-6.132 9.91-6.132 2.55 7.728.478 11.643z" data-name="Trac 43"></path><path opacity=".1" d="M726.943 421.819c-.577 4.39-3.388 5.58-6.608 5.158s-5.628-2.3-5.051-6.689 7.14-9.21 7.14-9.21 5.096 6.35 4.519 10.741z" data-name="Trac 44"></path><path d="m395.734 273.097 83.697-86.343.606.587-83.697 86.343z" fill="#3f3d56" data-name="Rectangle 14"></path><path d="m404.173 301.789 83.697-86.343.606.587-83.697 86.343z" fill="#3f3d56" data-name="Rectangle 15"></path><path fill="#3f3d56" d="m768.992 193.097-65.865 67.983c.076-.5.169-.987.253-1.485l65.165-67.257c.155.253.303.506.447.759z" data-name="Trac 45"></path><path d="m704.629 327.138 83.673-86.371.607.587-83.674 86.371z" fill="#3f3d56" data-name="Rectangle 16"></path><path fill="#3f3d56" d="m781.574 217.536-80.219 82.793-1.19 1.232-.608-.591 1.7-1.755 79.943-82.514c.138.278.256.558.374.835z" data-name="Trac 46"></path><path fill="#2f2e41" d="M437.9 202.669h-10.552v-10.552H437.9zm-9.74-.81h8.929v-8.929h-8.929z" data-name="Trac 47"></path><path fill="#2f2e41" d="M751.825 342.754h-10.553v-10.553h10.553zm-9.741-.812h8.929v-8.929h-8.929z" data-name="Trac 48"></path><circle opacity=".4" fill="#edf5e1" transform="translate(305.903 83.833)" r="12.591" cy="12.591" cx="12.591" data-name="Ellipse 15"></circle><circle opacity=".4" fill="#edf5e1" transform="translate(286.359 93.605)" r="8.832" cy="8.832" cx="8.832" data-name="Ellipse 16"></circle><circle opacity=".4" fill="#edf5e1" transform="translate(841.237 37.771)" r="26.369" cy="26.369" cx="26.369" data-name="Ellipse 17"></circle><circle opacity=".4" fill="#edf5e1" transform="translate(811.488 79.184)" r="18.498" cy="18.498" cx="18.498" data-name="Ellipse 18"></circle><path fill="#2f2e41" d="m342 475.867-.8-.016a185.878 185.878 0 0 1 2.845-26.564c3.466-18.787 9.229-31.126 17.129-36.673l.46.656c-18.453 12.958-19.622 62.102-19.634 62.597z" data-name="Trac 49"></path><path fill="#2f2e41" d="m352.021 475.675-.8-.016c.017-.888.518-21.806 8.753-27.588l.46.656c-7.903 5.549-8.409 26.732-8.413 26.948z" data-name="Trac 50"></path><circle fill="#edf5e1" transform="translate(362.188 405.328)" r="4.007" cy="4.007" cx="4.007" data-name="Ellipse 19"></circle><circle fill="#edf5e1" transform="translate(360.204 439.792)" r="4.007" cy="4.007" cx="4.007" data-name="Ellipse 20"></circle><path fill="#2f2e41" d="M350.153 415.745a17.8 17.8 0 0 1-1.21 9.113 16.222 16.222 0 0 1-2.727-17.42 17.8 17.8 0 0 1 3.937 8.307z" data-name="Trac 51"></path><path fill="#2f2e41" d="M363.253 427.429a17.8 17.8 0 0 1-9.185.4 16.222 16.222 0 0 1 16.679-5.721 17.8 17.8 0 0 1-7.494 5.324z" data-name="Trac 52"></path><path fill="#2f2e41" d="M363.4 457.95a12.477 12.477 0 0 1-6.438.278 11.371 11.371 0 0 1 11.69-4.01 12.476 12.476 0 0 1-5.252 3.732z" data-name="Trac 53"></path><path fill="#2f2e41" d="M344 723.717H70.429v-2h272.775z" data-name="Trac 54"></path><path fill="#2f2e41" d="M73.485 693.779s-6.035 25.236-.549 26.334 32.368.743 38.952 1.84 20.3-.743 20.3-5.681-14.264-8.229-14.264-8.229-20.3-10.972-20.847-11.521-23.592-2.743-23.592-2.743z" data-name="Trac 55"></path><path fill="#575a89" d="M78.423 545.104s1.646 18.653 1.646 20.3-1.646 27.431 0 28.528-1.1 8.778-1.1 11.521-8.778 48.278-6.583 65.834-3.292 15.91-1.646 17.556 1.646 1.646 1.646 4.938 17.556 6.035 17.556 6.035l19.2-121.244-9.872-36.213z" data-name="Trac 56"></path><path opacity=".1" d="M78.423 545.104s1.646 18.653 1.646 20.3-1.646 27.431 0 28.528-1.1 8.778-1.1 11.521-8.778 48.278-6.583 65.834-3.292 15.91-1.646 17.556 1.646 1.646 1.646 4.938 17.556 6.035 17.556 6.035l19.2-121.244-9.872-36.213z" data-name="Trac 57"></path><path fill="#2f2e41" d="M81.166 701.459s-5.486 19.75 0 20.847 32.368-1.257 38.952-.16 20.3 1.257 20.3-3.681-14.264-8.229-14.264-8.229-20.3-10.972-20.847-11.521-24.141 2.744-24.141 2.744z" data-name="Trac 58"></path><path fill="#575a89" d="M73.485 523.159s-6.583 15.91 1.1 24.139 16.458 24.688 16.458 25.785S75.68 683.359 77.874 690.488s1.646 11.521 1.1 12.618 5.486 7.132 12.07 7.132 16.456-4.937 17.556-9.326-1.646-42.243-1.1-49.375 3.292-17.556 4.389-19.75 7.132-4.389 8.229-10.972 9.875-90.522 7.132-93.265-53.765-4.391-53.765-4.391z" data-name="Trac 59"></path><circle fill="#ffb9b9" transform="translate(96.527 359.672)" r="18.653" cy="18.653" cx="18.653" data-name="Ellipse 21"></circle><path fill="#ffb9b9" d="M103.659 387.652s3.84 20.3 1.1 22.493 20.848 5.486 20.848 5.486 2.743-26.882 3.292-29.625-25.24 1.646-25.24 1.646z" data-name="Trac 60"></path><path fill="#edf5e1" d="M128.9 413.985s-6.583-19.2-33.466-13.715c0 0-4.938 1.646-3.292 3.292s3.292 1.646 1.1 3.292-4.938 0-3.292 1.646-14.813 11.521-13.715 30.174-3.84 44.987 0 49.375-2.743 23.591-1.646 27.431-6.583 8.778-3.292 10.424 62.542 11.521 64.188 0 .549-3.292 2.194-6.035 2.194-7.681 1.1-13.715-3.84-20.847-2.743-26.333 0-51.57-3.292-57.056-3.844-8.78-3.844-8.78z" data-name="Trac 61"></path><path fill="#ffb9b9" d="M117.375 547.847s-8.229 31.271 2.194 31.271 9.875-32.368 9.875-32.368z" data-name="Trac 62"></path><path fill="#2f2e41" d="M123.41 378.325c0 1.591-2.3 2.6-5.876 2.831h-.005a29.89 29.89 0 0 1-4.543-.088c-2.282-.208-3.226 1.937-3.615 4.767-.636 4.669.252 11.214-.773 12.24-1.415 1.415-11.735-.005-14.961-3.215a2.981 2.981 0 0 1-.949-1.723 9.166 9.166 0 0 0-2.754-5.119c-1.9-2.079-4.614-4.383-7.67-8.048-5.486-6.583 0-7.132 1.646-12.069s4.389-6.583 4.389-9.875 12.618-6.035 23.042-5.486 8.229 13.719 8.229 13.719.62 1.591 1.361 3.643a57.214 57.214 0 0 1 2.436 7.911 3.985 3.985 0 0 1 .044.516z" data-name="Trac 63"></path><path fill="#575a89" d="M138.222 356.38v-4.937l-14.812 1.1-2.025 8.193 4.153 5.273 9.941-6.334z" data-name="Trac 64"></path><path opacity=".1" d="M138.222 356.38v-4.937l-14.812 1.1-2.025 8.193 4.153 5.273 9.941-6.334z" data-name="Trac 65"></path><path fill="#575a89" d="m147 366.804-9.875 2.743-9.875 6.035-3.884 2.227-5.832 3.347h-.005l-8.158 4.68-15.735 9.023a2.981 2.981 0 0 1-.949-1.723 9.166 9.166 0 0 0-2.754-5.119l31-18.121 2.48-1.448 14.813-17.007z" data-name="Trac 66"></path><path opacity=".1" d="M121.215 422.214s-18.653-1.1-20.3 26.334-1.1 53.216-1.1 53.764 7.685 52.667 14.817 52.667 12.618-1.1 14.264-3.84-4.389-42.243-4.389-42.243-2.743-41.695 1.646-54.862 4.937-30.175-4.938-31.82z" data-name="Trac 67"></path><path fill="#edf5e1" d="M123.958 419.471s-18.653-1.1-20.3 26.334-1.1 53.216-1.1 53.764 7.681 52.667 14.813 52.667 12.618-1.1 14.264-3.84-4.389-42.243-4.389-42.243-2.743-41.695 1.646-54.862 4.941-30.174-4.934-31.82z" data-name="Trac 68"></path></g><g transform="translate(-21.188 297.774)"><path stroke="#6c63ff" fill="#6c63ff" d="M21.688 475.61h960l-158.612 99.432s295.95-289.72 54.007-73.432-855.395 0-855.395 0z" data-name="Trac 79"></path><path d="M86.688 289.61h73v42h-73z" fill="#fff" data-name="Rectangle 47"></path><circle stroke-miterlimit="10" stroke="#6c63ff" fill="#6c63ff" transform="translate(156.688 141.61)" r="21" cy="21" cx="21" data-name="Ellipse 22"></circle><path fill="#4d8af0" d="M95.617 496.739c5.576-20.076 23.108-30.532 39.147-29.695s30.98 10.5 45.358 20.022 29.266 19.278 45.3 20.327c35.629 2.33 65.613-38.126 101.118-42.717 42.208-5.458 79.665 40.385 122.047 42.273 7.453.332 15.055-.767 21.919-4.657 5.974-3.386 11.18-8.751 16.823-13.031 28.476-21.6 64.094-13.445 95.6-1.468s143.665 23.7 175.69 14.5" data-name="Trac 70"></path><path fill="#4d8af0" d="M21.688 540.747c8.223-20.076 34.079-30.532 57.735-29.695s45.69 10.5 66.894 20.022 43.159 19.278 66.808 20.323c52.546 2.33 96.768-38.126 149.131-42.717 62.249-5.458 117.492 40.385 180 42.273 10.992.332 22.2-.767 32.326-4.657 8.811-3.386 16.489-8.751 24.811-13.031 42-21.6 94.526-13.445 140.99-1.468s94.7 27.321 141.929 18.12" data-name="Trac 71"></path><path fill="#4d8af0" d="M21.688 572.278c9.155-12.07 37.943-18.357 64.28-17.853s50.869 6.314 74.477 12.038 48.055 11.591 74.381 12.221c58.5 1.4 107.737-22.922 166.037-25.683 69.306-3.282 130.811 24.281 200.4 25.416 12.239.2 24.721-.461 35.991-2.8 9.81-2.036 18.358-5.261 27.623-7.834 46.758-12.987 105.242-8.083 156.973-.883s105.432 16.426 158.017 10.894" data-name="Trac 72"></path><g opacity=".5" data-name="Groupe 8"><path fill="url(#a)" transform="translate(1048.5 -427.069)" d="m399.761 238.812-6.895-1.22a44.53 44.53 0 0 1 .832-5.07c1.17-14.781-9.079-30.335-23.488-34.258l1.844-6.773c13.129 3.574 23.255 14.561 27.1 27.357A48.519 48.519 0 0 1 430.8 195.9l1.388 6.881c-15.1 3.046-27.943 15.89-31.534 30.859a35.465 35.465 0 0 1-.893 5.172z" data-name="Trac 74"></path></g><path fill="#706a6a" d="m1335.288-137.891-5.894-1.043a38.054 38.054 0 0 1 .711-4.334c1-12.635-7.761-25.93-20.078-29.283l1.576-5.789c11.223 3.055 19.878 12.447 23.162 23.384 1.379-2.36 25.064-15.351 27.054-17.6 5.6-6.327-8.7-.142 0-2.02l1.187 5.882c-9.141 1.844-22.544 16.035-22.544 16.035s-3.514 6.606-4.41 10.342a30.311 30.311 0 0 1-.764 4.421z" data-name="Trac 75"></path><g opacity=".5" data-name="Groupe 9"><path fill="url(#a)" transform="translate(1088.5 -338.491)" d="m547.271 175.413-4.447-.787a28.726 28.726 0 0 1 .537-3.27c.755-9.534-5.856-19.567-15.151-22.1l1.189-4.369c8.469 2.305 15 9.393 17.478 17.646a31.3 31.3 0 0 1 20.415-14.8l.9 4.439c-9.743 1.965-18.024 10.25-20.34 19.9a22.884 22.884 0 0 1-.576 3.336z" data-name="Trac 76"></path></g><g opacity=".5" data-name="Groupe 10"><path fill="url(#a)" transform="translate(-123.146 -124.89)" d="m818.271 155.413-4.447-.787a28.713 28.713 0 0 1 .537-3.27c.755-9.534-5.856-19.567-15.151-22.1l1.189-4.369c8.469 2.305 15 9.393 17.478 17.646a31.3 31.3 0 0 1 20.415-14.8l.9 4.439c-9.743 1.965-18.024 10.25-20.34 19.9a22.867 22.867 0 0 1-.581 3.341z" data-name="Trac 77"></path></g><path fill="#706a6a" d="m1636.1-168.422-2.89-.511a18.652 18.652 0 0 1 .349-2.125c.491-6.2-3.806-12.715-9.845-14.359l.773-2.839a16.856 16.856 0 0 1 11.353 11.465 20.337 20.337 0 0 1 13.266-9.619l.582 2.884a17.712 17.712 0 0 0-13.218 12.935 14.866 14.866 0 0 1-.374 2.168z" data-name="Trac 78"></path><g opacity=".5" transform="translate(1116.677 397.224)" data-name="Groupe 11"><circle fill="url(#a)" transform="translate(.011 .002)" r="67" cy="67" cx="67" data-name="Ellipse 23"></circle></g></g></svg>