<svg xmlns="http://www.w3.org/2000/svg" xmlns:xlink="http://www.w3.org/1999/xlink" width="1635.5" height="833.849" viewBox="0 0 1635.5 833.849">
  <defs>
    <linearGradient id="linear-gradient" x1="0.5" y1="1" x2="0.5" gradientUnits="objectBoundingBox">
      <stop offset="0" stop-color="gray" stop-opacity="0.251"/>
      <stop offset="0.535" stop-color="gray" stop-opacity="0.122"/>
      <stop offset="1" stop-color="gray" stop-opacity="0.102"/>
    </linearGradient>
  </defs>
  <g id="undraw_Container_ship_ok1c" transform="translate(-21.188 235.577)">
    <path id="Tracé_79" data-name="Tracé 79" d="M0,0H960L801.388,99.432S1097.338-190.288,855.395,26,0,26,0,26Z" transform="translate(21.688 475.61)" fill="#6c63ff" stroke="#6c63ff" stroke-width="1"/>
    <rect id="Rectangle_47" data-name="Rectangle 47" width="73" height="42" transform="translate(86.688 289.61)" fill="#fff"/>
    <circle id="Ellipse_22" data-name="Ellipse 22" cx="21" cy="21" r="21" transform="translate(156.688 141.61)" fill="#6c63ff" stroke="#6c63ff" stroke-miterlimit="10" stroke-width="1"/>
    <path id="Tracé_70" data-name="Tracé 70" d="M232.429,621.629c5.576-20.076,23.108-30.532,39.147-29.695s30.98,10.5,45.358,20.022,29.266,19.278,45.3,20.327c35.629,2.33,65.613-38.126,101.118-42.717,42.208-5.458,79.665,40.385,122.047,42.273,7.453.332,15.055-.767,21.919-4.657,5.974-3.386,11.18-8.751,16.823-13.031,28.476-21.6,64.094-13.445,95.6-1.468s143.665,23.7,175.69,14.5" transform="translate(-136.812 -124.89)" fill="#4d8af0"/>
    <path id="Tracé_71" data-name="Tracé 71" d="M136.812,660.35c8.223-20.076,34.079-30.532,57.735-29.695s45.69,10.5,66.894,20.022S304.6,669.955,328.249,671c52.546,2.33,96.768-38.126,149.131-42.717,62.249-5.458,117.492,40.385,180,42.273,10.992.332,22.2-.767,32.326-4.657,8.811-3.386,16.489-8.751,24.811-13.031,42-21.6,94.526-13.445,140.99-1.468s94.7,27.321,141.929,18.12" transform="translate(-115.124 -119.603)" fill="#4d8af0"/>
    <path id="Tracé_72" data-name="Tracé 72" d="M238.751,697.168c9.155-12.07,37.943-18.357,64.28-17.853s50.869,6.314,74.477,12.038,48.055,11.591,74.381,12.221c58.5,1.4,107.737-22.922,166.037-25.683,69.306-3.282,130.811,24.281,200.4,25.416,12.239.2,24.721-.461,35.991-2.8,9.81-2.036,18.358-5.261,27.623-7.834,46.758-12.987,105.242-8.083,156.973-.883s105.432,16.426,158.017,10.894" transform="translate(-217.063 -124.89)" fill="#4d8af0"/>
    <g id="Groupe_8" data-name="Groupe 8" transform="translate(1418.71 -235.577)" opacity="0.5">
      <path id="Tracé_74" data-name="Tracé 74" d="M399.761,238.812l-6.895-1.22a44.53,44.53,0,0,1,.832-5.07c1.17-14.781-9.079-30.335-23.488-34.258l1.844-6.773c13.129,3.574,23.255,14.561,27.1,27.357A48.519,48.519,0,0,1,430.8,195.9l1.388,6.881c-15.1,3.046-27.943,15.89-31.534,30.859A35.465,35.465,0,0,1,399.761,238.812Z" transform="translate(-370.21 -191.492)" fill="url(#linear-gradient)"/>
    </g>
    <path id="Tracé_75" data-name="Tracé 75" d="M399.969,235.376l-5.894-1.043a38.054,38.054,0,0,1,.711-4.334c1-12.635-7.761-25.93-20.078-29.283l1.576-5.789c11.223,3.055,19.878,12.447,23.162,23.384,1.379-2.36,25.064-15.351,27.054-17.6,5.6-6.327-8.7-.142,0-2.02l1.187,5.882c-9.141,1.844-22.544,16.035-22.544,16.035s-3.514,6.606-4.41,10.342a30.311,30.311,0,0,1-.764,4.421Z" transform="translate(935.319 -373.267)" fill="#706a6a"/>
    <g id="Groupe_9" data-name="Groupe 9" transform="translate(1616.71 -193.601)" opacity="0.5">
      <path id="Tracé_76" data-name="Tracé 76" d="M547.271,175.413l-4.447-.787a28.726,28.726,0,0,1,.537-3.27c.755-9.534-5.856-19.567-15.151-22.1l1.189-4.369c8.469,2.305,15,9.393,17.478,17.646a31.3,31.3,0,0,1,20.415-14.8l.9,4.439c-9.743,1.965-18.024,10.25-20.34,19.9a22.884,22.884,0,0,1-.576,3.336Z" transform="translate(-528.21 -144.89)" fill="url(#linear-gradient)"/>
    </g>
    <g id="Groupe_10" data-name="Groupe 10" transform="translate(676.064 0)" opacity="0.5">
      <path id="Tracé_77" data-name="Tracé 77" d="M818.271,155.413l-4.447-.787a28.713,28.713,0,0,1,.537-3.27c.755-9.534-5.856-19.567-15.151-22.1l1.189-4.369c8.469,2.305,15,9.393,17.478,17.646a31.3,31.3,0,0,1,20.415-14.8l.9,4.439c-9.743,1.965-18.024,10.25-20.34,19.9A22.867,22.867,0,0,1,818.271,155.413Z" transform="translate(-799.21 -124.89)" fill="url(#linear-gradient)"/>
    </g>
    <path id="Tracé_78" data-name="Tracé 78" d="M547.6,170.069l-2.89-.511a18.652,18.652,0,0,1,.349-2.125c.491-6.2-3.806-12.715-9.845-14.359l.773-2.839A16.856,16.856,0,0,1,547.34,161.7a20.337,20.337,0,0,1,13.266-9.619l.582,2.884A17.712,17.712,0,0,0,547.97,167.9a14.866,14.866,0,0,1-.374,2.168Z" transform="translate(1088.5 -338.491)" fill="#706a6a"/>
    <g id="Groupe_11" data-name="Groupe 11" transform="translate(1116.677 397.224)" opacity="0.5">
      <circle id="Ellipse_23" data-name="Ellipse 23" cx="67" cy="67" r="67" transform="translate(0.011 0.002)" fill="url(#linear-gradient)"/>
    </g>
  </g>
</svg>
